# xmcd
#
# Track frame offsets:
#	150
#	10822
#	25671
#	38369
#	51349
#	64519
#	80908
#	93645
#	103888
#	120663
#	130585
#	146688
#	158307
#	171628
#	187596
#	199967
#	218946
#	233343
#
# Disc length: 3318 seconds
#
# Revision: 0
# Processed by: cddbd v1.5.2PL0 Copyright (c) Steve Scherf et al.
# Submitted via: EZCDAudioConverter 5.5.0.1
#
DISCID=ea0cf412
DTITLE=Los Cinco Latinos - Grandes Exitos
DYEAR=1990
DGENRE=Balada
TTITLE0=Los Cinco Latinos - Amor bajo cero
TTITLE1=Los Cinco Latinos - Balada de la trompeta
TTITLE2=Los Cinco Latinos - Buona Sera
TTITLE3=Los Cinco Latinos - Dulces 16
TTITLE4=Los Cinco Latinos - El Telegrama
TTITLE5=Los Cinco Latinos - En Esta Tarde Gris
TTITLE6=Los Cinco Latinos - En Un Rincon Del Alma
TTITLE7=Los Cinco Latinos - Eres diferente
TTITLE8=Los Cinco Latinos - Este Muchacho Enamorado de Ti
TTITLE9=Los Cinco Latinos - Himno al amor
TTITLE10=Los Cinco Latinos - La Cumparsita
TTITLE11=Los Cinco Latinos - Las hojas muertas
TTITLE12=Los Cinco Latinos - Siete Notas De Amor
TTITLE13=Los Cinco Latinos - Uno
TTITLE14=Los cinco Latinos - Extraños en la noche
TTITLE15=Los Cinco Latinos - Granada
TTITLE16=Los Cinco Latinos - Porqué me dejas
TTITLE17=Los Cinco Latinos - Yira...Yira
EXTD=
EXTT0=
EXTT1=
EXTT2=
EXTT3=
EXTT4=
EXTT5=
EXTT6=
EXTT7=
EXTT8=
EXTT9=
EXTT10=
EXTT11=
EXTT12=
EXTT13=
EXTT14=
EXTT15=
EXTT16=
EXTT17=
PLAYORDER=
